<?xml version="1.0" encoding="utf-8"?>
<!-- Generator: Adobe Illustrator 23.1.0, SVG Export Plug-In . SVG Version: 6.00 Build 0)  -->
<svg version="1.1" id="Layer_1" xmlns="http://www.w3.org/2000/svg" xmlns:xlink="http://www.w3.org/1999/xlink" x="0px" y="0px"
	 viewBox="0 0 320 320" style="enable-background:new 0 0 320 320;" xml:space="preserve">
<style type="text/css">
	.st0{fill:#414042;stroke:#414042;stroke-miterlimit:10;}
	.st1{fill:#6D6E71;stroke:#6D6E71;stroke-miterlimit:10;}
	.st2{fill:#58595B;stroke:#58595B;stroke-miterlimit:10;}
	.st3{fill:#D1D3D4;}
</style>
<polygon class="st0" points="95.8,144.9 59,58 125.3,125.2 124.6,30.8 160.1,118.3 195.6,30.8 195,125.2 261.3,58 224.5,144.9 "/>
<path class="st0" d="M132.2,161.5c0,0-10.7,68.3-55.2,92.9c-31.5,17.4-36.6,44.1-36.6,44.1h119.6h119.6c0,0-5.1-26.7-36.6-44.1
	c-44.5-24.5-55.2-92.9-55.2-92.9H132.2z"/>
<path class="st1" d="M132.2,161.5c0,0-10.7,68.3-55.2,92.9c-31.5,17.4-36.6,44.1-36.6,44.1h119.6h119.6c0,0-5.1-26.7-36.6-44.1
	c-44.5-24.5-73.4-19.9-97.2-92.9C145,158.2,132.2,161.5,132.2,161.5z"/>
<path class="st2" d="M132.2,161.5c0,0-5.8,37.1-26.7,66.4c-7.5,10.5-8.3,29.9-20,36.4c-19.6,10.8-37.5,15.3-41.7,24.6
	c-2.6,5.7-3.3,9.5-3.3,9.5h119.6h119.6c0,0-5.1-26.7-36.6-44.1c-44.5-24.5-73.4-19.9-97.2-92.9C145,158.2,132.2,161.5,132.2,161.5z"
	/>
<path class="st1" d="M192.6,158.9l11.8-2.9c0,0,3.4-10.7-0.2-11.8c-30.8-9.4-41.2-8.7-41.2-8.7s-47.5,0.6-78.4,10
	c-2.4,0.7,3.1,13.5,3.1,13.5L192.6,158.9z"/>
<path class="st0" d="M192.5,162.9h47.2c0,0,8.1-16.5,4.5-17.6c-30.8-9.4-79.6-9.5-79.6-9.5s-48.7,0.1-79.6,9.5
	c-3.6,1.1,4.5,17.6,4.5,17.6h47.2H192.5z"/>
<path class="st2" d="M95.8,144.9L59,58c0,0,15.1,9.7,14.8,15c-1,14.9,18.9,19.2,30,30.5c11.5,11.7,21.5,21.8,21.5,21.8l-0.7-94.4
	c0,0,3.3,14.6,4.2,19.5c3.5,18.7,31.3,68,31.3,68l30.8-75.8l4.1,82.7L255,64.3l-41.5,80.7H95.8z"/>
<path class="st1" d="M192.6,158.9l11.8-2.9c0,0,3.4-10.7-0.2-11.8c-30.8-9.4-41.2-8.7-41.2-8.7s-47.5,0.6-78.4,10
	c-2.4,0.7,3.1,13.5,3.1,13.5L192.6,158.9z"/>
<g>
	<path class="st0" d="M85.4,70.5c-0.4,10-8.9,17.8-19,17.4c-10.1-0.4-10.9-19.1-10.9-19.1S58,51.1,68,51.6S85.9,60.5,85.4,70.5z"/>
	<path class="st1" d="M79.9,69.1c-0.4,10-3.4,19.2-13.5,18.8C56.4,87.4,48.6,79,49,68.9c0.4-10,8.9-17.7,19-17.4
		C78.1,51.9,80.4,59.1,79.9,69.1z"/>
	<path class="st2" d="M82.3,70.3c-1.2,10-5.7,17.9-15.8,17.5C62,87.7,58,85.9,55,83.1c-2.1-1.9-3.7-4.2-4.7-6.9
		c-0.5-1.2,6.5-19.4,19.1-24c2.1-0.8,5.1,0.4,7.6,2.3C81.6,58.2,83.1,64,82.3,70.3z"/>
</g>
<g>
	<path class="st0" d="M145.8,38.7c-1.5,9.9-10.9,16.7-20.8,15.1s-8.7-20.2-8.7-20.2s4.3-17.2,14.3-15.7
		C140.5,19.5,147.3,28.8,145.8,38.7z"/>
	<path class="st1" d="M140.5,36.7c-1.5,9.9-5.5,18.7-15.5,17.1S108.3,43,109.8,33.1c1.5-9.9,10.8-16.6,20.8-15.1
		C140.6,19.5,142,26.8,140.5,36.7z"/>
	<path class="st2" d="M142.7,38.3c-2.3,10.2-7.3,17.4-17.7,15.6c-4.4-0.7-8.2-2.9-10.9-6c-1.9-2.1-3.2-4.6-3.9-7.4
		c-0.3-1.2,8.7-18.5,21.7-21.7c2.2-0.5,5.1,1,7.3,3.2C143.3,26.1,144.1,32,142.7,38.3z"/>
</g>
<g>
	<path class="st0" d="M272.8,69.7c0,10-8.2,18.2-18.2,18.2s-11.7-18.7-11.7-18.7s1.6-17.7,11.7-17.7S272.8,59.7,272.8,69.7z"/>
	<path class="st1" d="M267.2,68.5c0,10-2.6,19.3-12.7,19.3s-18.2-8.1-18.2-18.2s8.2-18.1,18.2-18.2
		C264.7,51.5,267.2,58.5,267.2,68.5z"/>
	<path class="st2" d="M269.6,69.7c-0.8,10-5,18.2-15.1,18.2c-4.4,0-8.7-1.4-11.8-4.1c-2.2-1.8-3.7-4.2-4.9-6.8
		c-0.5-1.2,5.7-19.7,18.1-24.7c2.1-0.9,5.2,0.2,7.7,2C268.4,57.6,270.2,63.3,269.6,69.7z"/>
</g>
<g>
	<path class="st0" d="M210.8,39.2c-1.6,9.9-10.9,16.7-20.8,15.1c-9.9-1.6-8.6-20.2-8.6-20.2s4.3-17.2,14.3-15.6
		C205.5,20,212.3,29.3,210.8,39.2z"/>
	<path class="st1" d="M205.4,37.2c-1.6,9.9-5.6,18.7-15.5,17.1c-9.9-1.6-16.7-10.9-15.2-20.8c1.6-9.9,10.9-16.6,20.8-15.1
		C205.6,20,207,27.3,205.4,37.2z"/>
	<path class="st2" d="M207.6,38.7c-2.4,9.7-7.7,17.3-17.7,15.8c-4.4-0.7-8.2-3.1-10.9-6.2c-1.8-2.1-3.2-4.6-3.9-7.4
		c-0.3-1.2,8.7-18.5,21.7-21.6c2.2-0.5,5.1,1,7.3,3.2C208.3,26.6,209.1,32.5,207.6,38.7z"/>
</g>
<g>
	<g>
		<path class="st3" d="M60.4,63.1c-0.7,1.2-1.4,2.4-2.1,3.5c-0.3,0.6-0.4,1.3-0.3,1.9c0.2,0.6,0.6,1.2,1.1,1.5
			c0.6,0.3,1.3,0.5,1.9,0.3c0.6-0.2,1.2-0.6,1.5-1.1c0.7-1.2,1.4-2.4,2.1-3.5c0.3-0.6,0.4-1.3,0.3-1.9c-0.2-0.6-0.6-1.2-1.1-1.5
			c-0.6-0.3-1.3-0.5-1.9-0.3C61.3,62.2,60.8,62.5,60.4,63.1L60.4,63.1z"/>
	</g>
</g>
<g>
	<g>
		<path class="st3" d="M121.5,28.4c-0.7,1.2-1.4,2.4-2.1,3.5c-0.3,0.6-0.4,1.3-0.3,1.9c0.2,0.6,0.6,1.2,1.1,1.5
			c0.6,0.3,1.3,0.5,1.9,0.3c0.6-0.2,1.2-0.6,1.5-1.1c0.7-1.2,1.4-2.4,2.1-3.5c0.3-0.6,0.4-1.3,0.3-1.9c-0.2-0.6-0.6-1.2-1.1-1.5
			c-0.6-0.3-1.3-0.5-1.9-0.3C122.4,27.4,121.9,27.8,121.5,28.4L121.5,28.4z"/>
	</g>
</g>
<g>
	<g>
		<path class="st3" d="M186,28.4c-0.7,1.2-1.4,2.4-2.1,3.5c-0.3,0.6-0.4,1.3-0.3,1.9c0.2,0.6,0.6,1.2,1.1,1.5
			c0.6,0.3,1.3,0.5,1.9,0.3c0.6-0.2,1.2-0.6,1.5-1.1c0.7-1.2,1.4-2.4,2.1-3.5c0.3-0.6,0.4-1.3,0.3-1.9c-0.2-0.6-0.6-1.2-1.1-1.5
			c-0.6-0.3-1.3-0.5-1.9-0.3C186.8,27.4,186.3,27.8,186,28.4L186,28.4z"/>
	</g>
</g>
<g>
	<g>
		<path class="st3" d="M249.6,61.3c-0.7,1.2-1.4,2.4-2.1,3.5c-0.3,0.6-0.4,1.3-0.3,1.9c0.2,0.6,0.6,1.2,1.1,1.5
			c0.6,0.3,1.3,0.5,1.9,0.3c0.6-0.2,1.2-0.6,1.5-1.1c0.7-1.2,1.4-2.4,2.1-3.5c0.3-0.6,0.4-1.3,0.3-1.9c-0.2-0.6-0.6-1.2-1.1-1.5
			c-0.6-0.3-1.3-0.5-1.9-0.3C250.5,60.4,250,60.8,249.6,61.3L249.6,61.3z"/>
	</g>
</g>
<path class="st2" d="M192.6,158.9l19-2.2c0,0,8.9-10.5,5.3-11.6c-30.5-9.9-53.8-10.4-53.8-10.4s-39.6,0.7-69.6,8.3
	c-3.1,0.8-1.6,3.5-3.7,6.3c-0.8,1-4.6,3.1-4.6,3.1l2.5,6.5L192.6,158.9z"/>
</svg>
