<?xml version="1.0" encoding="utf-8"?>
<!-- Generator: Adobe Illustrator 23.1.0, SVG Export Plug-In . SVG Version: 6.00 Build 0)  -->
<svg version="1.1" id="Layer_1" xmlns="http://www.w3.org/2000/svg" xmlns:xlink="http://www.w3.org/1999/xlink" x="0px" y="0px"
	 viewBox="0 0 320 320" style="enable-background:new 0 0 320 320;" xml:space="preserve">
<style type="text/css">
	.st0{fill:#939598;stroke:#939598;stroke-miterlimit:10;}
	.st1{fill:#E6E7E8;stroke:#E6E7E8;stroke-miterlimit:10;}
	.st2{fill:#D1D3D4;stroke:#D1D3D4;stroke-miterlimit:10;}
	.st3{fill:#58595B;stroke:#58595B;stroke-miterlimit:10;}
	.st4{fill:#F1F2F2;}
	.st5{fill:none;stroke:#58595B;stroke-miterlimit:10;}
</style>
<path class="st0" d="M127.7,171.6c0,0-10.7,68.3-55.2,92.9c-31.5,17.4-36.6,44.1-36.6,44.1h119.6h119.6c0,0-5.1-26.7-36.6-44.1
	c-44.5-24.5-55.2-92.9-55.2-92.9H127.7z"/>
<path class="st1" d="M127.7,171.6c0,0-10.7,68.3-55.2,92.9c-31.5,17.4-36.6,44.1-36.6,44.1h119.6h119.6c0,0-5.1-26.7-36.6-44.1
	c-44.5-24.5-73.4-19.9-97.2-92.9C140.4,168.3,127.7,171.6,127.7,171.6z"/>
<path class="st0" d="M181.4,31c0,11.8-9.6,21.4-21.4,21.4s-13.7-21.9-13.7-21.9S148.2,9.6,160,9.6S181.4,19.2,181.4,31z"/>
<path class="st0" d="M202.6,97.9c1.4,32.4-19.1,58.8-42.6,58.8s-42.6-26.3-42.6-58.8s19.1-58.8,42.6-58.8c5.9,0,14.6-3,19.7,0
	c0.8,0.5-34.5,71.8-22.4,90c1.1,1.7,8,3.4,8.1,1.4c3-42.7,21.5-75.2,21.5-75.2S202,83.9,202.6,97.9z"/>
<path class="st1" d="M174.9,29.6c0,11.8-3,22.7-14.9,22.7s-21.4-9.6-21.4-21.4S148.2,9.7,160,9.6C171.9,9.5,174.9,17.8,174.9,29.6z"
	/>
<path class="st1" d="M193.2,97.5c3,21.2-9.7,59.2-33.2,59.2s-42.6-26.3-42.6-58.8s19.1-58.8,42.6-58.8c5.9,0,10.9-3.3,16-0.4
	c0.8,0.5-40.4,74.7-18.7,90.4c1.7,1.2,8,3.4,8.1,1.4c3-42.7,21.6-73.2,21.6-73.2S191.3,83.4,193.2,97.5z"/>
<path class="st2" d="M196.3,97.2c0.4,21.9-12.8,59.4-36.3,59.4c-14.4,0-27-9.8-34.8-24.8c-4.9-9.6-0.7-84.3,37.6-84.5
	c5.9,0,8-11.5,13.1-8.6c0.8,0.5-40.4,74.7-18.7,90.4c1.7,1.2,8,3.4,8.1,1.4c3-42.7,21.5-75.2,21.5-75.2S196.1,83,196.3,97.2z"/>
<path class="st3" d="M84.9,173"/>
<path class="st3" d="M187.9,173"/>
<path class="st2" d="M177.7,31c-1,11.8-7.1,18.5-19,18.5c-5.2,0-8.7,1-12.5-2.1c-2.5-2.1-4.6-4.8-5.9-7.9
	c-0.6-1.4,6.7-23.1,21.3-29.1c2.4-1,6.1,0.3,9,2.4C176.3,16.8,178.3,23.4,177.7,31z"/>
<g>
	<g>
		<path class="st4" d="M156.2,18.3c-0.8,0.5-1.4,1.2-2,1.9c-0.8,1-1.6,2-2.3,3c-1.2,1.7-2.4,3.6-3.1,5.6c-0.4,1.2,0.5,2.8,1.7,3.1
			c1.4,0.3,2.6-0.4,3.1-1.7c0-0.1,0.1-0.2,0.1-0.2c0.1-0.3-0.3,0.7-0.1,0.3c0.1-0.2,0.2-0.4,0.3-0.5c0.2-0.4,0.4-0.8,0.6-1.2
			c0.5-0.9,1.1-1.8,1.7-2.7c0.3-0.4,0.6-0.9,0.9-1.3c0.1-0.1,0.1-0.2,0.2-0.3c0.4-0.5-0.3,0.4-0.1,0.1c0.1-0.2,0.3-0.4,0.4-0.5
			c0.3-0.3,0.5-0.6,0.8-0.9c0.1-0.1,0.2-0.2,0.4-0.3c0.3-0.3-0.5,0.4-0.3,0.2c0.1,0,0.1-0.1,0.2-0.1c1.1-0.7,1.6-2.3,0.9-3.4
			C158.9,18.1,157.4,17.6,156.2,18.3L156.2,18.3z"/>
	</g>
</g>
<path class="st5" d="M72.6,169"/>
<path class="st5" d="M200.4,169"/>
<path class="st2" d="M127.7,171.6c0,0-5.8,37.1-26.7,66.4c-7.5,10.5-8.3,29.9-20,36.4c-19.6,10.8-37.5,15.3-41.7,24.6
	c-2.6,5.7-3.3,9.5-3.3,9.5h119.6h119.6c0,0-5.1-26.7-36.6-44.1c-44.5-24.5-73.4-19.9-97.2-92.9C140.4,168.3,127.7,171.6,127.7,171.6
	z"/>
<path class="st0" d="M187.9,173h47.2c0,0,8.1-16.5,4.5-17.6c-30.8-9.4-79.6-9.5-79.6-9.5s-48.7,0.1-79.6,9.5
	C76.9,156.4,85,173,85,173h47.2H187.9z"/>
<path class="st1" d="M188,169l11.8-2.9c0,0,3.4-10.7-0.2-11.8c-30.8-9.4-41.2-8.7-41.2-8.7s-47.5,0.6-78.4,10
	c-2.4,0.7,3.1,13.5,3.1,13.5L188,169z"/>
<path class="st2" d="M188,169l11.8-2.9c0,0,3.4-10.7-0.2-11.8c-30.8-9.4-41.4-9.7-41.4-9.7s-26.8,2.4-26.8,2.4s-12.9,11-18.1,13.1
	c-7.5,3-32.3,3.4-32.3,3.4l2.1,5.6L188,169z"/>
</svg>
