<?xml version="1.0" encoding="utf-8"?>
<!-- Generator: Adobe Illustrator 23.1.0, SVG Export Plug-In . SVG Version: 6.00 Build 0)  -->
<svg version="1.1" id="Layer_1" xmlns="http://www.w3.org/2000/svg" xmlns:xlink="http://www.w3.org/1999/xlink" x="0px" y="0px"
	 viewBox="0 0 320 320" style="enable-background:new 0 0 320 320;" xml:space="preserve">
<style type="text/css">
	.st0{fill:#BCBEC0;stroke:#BCBEC0;stroke-miterlimit:10;}
	.st1{fill:#E6E7E8;stroke:#E6E7E8;stroke-miterlimit:10;}
	.st2{fill:#D1D3D4;stroke:#D1D3D4;stroke-miterlimit:10;}
	.st3{fill:#58595B;stroke:#58595B;stroke-miterlimit:10;}
	.st4{fill:none;stroke:#58595B;stroke-miterlimit:10;}
	.st5{fill:#F1F2F2;}
</style>
<polygon class="st0" points="163.6,162.4 174.3,162.4 174.3,79.6 170.6,46.8 191.1,46.8 191.1,29.6 172.2,29.6 171.8,10.3 
	163.6,10.3 155.4,10.3 155,29.6 136.1,29.6 136.1,46.8 156.6,46.8 152.8,79.6 152.8,162.4 "/>
<path class="st0" d="M252.8,65.9L252.8,65.9c-17.8-17.8-47-17.8-64.8,0l-24.5,24.5l-24.5-24.5c-17.8-17.8-41.6-13.1-59.5,4.7l0,0
	c-17.8,17.8-23.1,42.2-5.3,60l34.6,34.6h109.3l34.6-34.6C270.6,112.9,270.6,83.7,252.8,65.9z M214.9,138.7L195,158.6h-62.8
	l-19.9-19.9c-10.2-10.2-10.2-27,0-37.2v0c10.2-10.2,27-10.2,37.2,0l14.1,14.1l14.1-14.1c10.2-10.2,27-10.2,37.2,0v0
	C225.1,111.7,225.1,128.5,214.9,138.7z"/>
<path class="st1" d="M253.2,65.9L253.2,65.9c-17.8-17.8-47-17.8-64.8,0l-24.5,24.5l-24.5-24.5c-17.8-17.8-47-17.8-64.8,0l0,0
	c-17.8,17.8-17.8,47,0,64.8l34.6,34.6h101.6l37-37C265.6,110.5,271,83.7,253.2,65.9z M215.2,138.7l-19.9,19.9h-62.8l-19.9-19.9
	c-10.2-10.2-15.5-32.7-5.3-42.9v0c10.2-10.2,32.2-4.6,42.5,5.7l14.1,14.1l11.7-17.9c10.2-10.2,27-10.2,37.2,0l2.3,3.8
	C225.4,111.7,225.4,128.5,215.2,138.7z"/>
<path class="st2" d="M252.8,65.9L252.8,65.9c-17.8-17.8-47-17.8-64.8,0l-24.5,24.5l-24.5-24.5c-17.8-17.8-41.6-13.1-59.5,4.7l0,0
	c-17.8,17.8-23.1,42.2-5.3,60l34.6,34.6h101.6l37-37C265.3,110.5,270.6,83.7,252.8,65.9z M214.9,138.7L195,158.6h-62.8l-19.9-19.9
	c-10.2-10.2-15.5-32.7-5.3-42.9v0c10.2-10.2,32.2-4.6,42.5,5.7l14.1,14.1l11.7-17.9c10.2-10.2,27-10.2,37.2,0l2.3,3.8
	C225.1,111.7,225.1,128.5,214.9,138.7z"/>
<polygon class="st1" points="163.6,162.4 170.8,162.4 171,80.1 167,44.5 188.8,44.3 191.1,29.6 169.9,29.6 171.8,10.3 163.6,10.3 
	155.4,10.3 155,29.6 136.1,29.6 136.1,46.8 156.8,44.8 152.8,79.6 152.8,162.4 "/>
<polygon class="st2" points="163.6,162.4 170.8,162.4 171.9,80.3 167,44.5 188.8,44.3 191.1,29.6 170.6,29.6 171.7,11.4 158.2,13.2 
	157.5,32.5 139.4,32.6 137,46.7 156.8,44.8 152.6,79.8 152.8,162.4 "/>
<rect x="120.7" y="147.2" class="st2" width="87.5" height="16.4"/>
<path class="st0" d="M135.7,172.2c0,0-10.7,68.3-55.2,92.9c-31.5,17.4-36.6,44.1-36.6,44.1h119.6h119.6c0,0-5.1-26.7-36.6-44.1
	c-44.5-24.5-55.2-92.9-55.2-92.9H135.7z"/>
<path class="st1" d="M135.7,172.2c0,0-10.7,68.3-55.2,92.9c-31.5,17.4-36.6,44.1-36.6,44.1h119.6h119.6c0,0-5.1-26.7-36.6-44.1
	c-44.5-24.5-73.4-19.9-97.2-92.9C148.4,168.9,135.7,172.2,135.7,172.2z"/>
<path class="st2" d="M135.7,172.2c0,0-5.8,37.1-26.7,66.4c-7.5,10.5-8.3,29.9-20,36.4c-19.6,10.8-37.5,15.3-41.7,24.6
	c-2.6,5.7-3.3,9.5-3.3,9.5h119.6h119.6c0,0-5.1-26.7-36.6-44.1c-44.5-24.5-73.4-19.9-97.2-92.9C148.4,168.9,135.7,172.2,135.7,172.2
	z"/>
<path class="st3" d="M91.9,181"/>
<path class="st4" d="M79.6,177"/>
<path class="st0" d="M194.9,181h47.2c0,0,8.1-16.5,4.5-17.6c-30.8-9.4-79.6-9.5-79.6-9.5s-48.7,0.1-79.6,9.5
	C83.9,164.4,92,181,92,181h47.2H194.9z"/>
<path class="st2" d="M195,177l11.8-2.9c0,0,3.4-10.7-0.2-11.8c-30.8-9.4-41.2-8.7-41.2-8.7s-47.5,0.6-78.4,10
	c-2.4,0.7,3.1,13.5,3.1,13.5L195,177z"/>
<path class="st4" d="M163.6,151.6"/>
<path class="st3" d="M157.1,50.3"/>
<g>
	<g>
		<path class="st5" d="M98.2,68.1c-3.9,0.6-7.9,2.9-10.5,5.9c-3.1,3.5-4.8,7.9-4.9,12.6c0,2.6,2.3,5.1,5,5c2.7-0.1,5-2.2,5-5
			c0-0.6,0-1.2,0.1-1.8c-0.1,0.4-0.1,0.9-0.2,1.3c0.2-1.2,0.5-2.4,1-3.5c-0.2,0.4-0.3,0.8-0.5,1.2c0.5-1.1,1.1-2.2,1.8-3.2
			c-0.3,0.3-0.5,0.7-0.8,1c0.7-0.9,1.6-1.8,2.5-2.5c-0.3,0.3-0.7,0.5-1,0.8c1-0.7,2.1-1.4,3.2-1.8c-0.4,0.2-0.8,0.3-1.2,0.5
			c1-0.4,2.1-0.7,3.1-0.9c1.2-0.2,2.4-1.3,3-2.3c0.6-1.1,0.9-2.7,0.5-3.9c-0.4-1.2-1.1-2.4-2.3-3C100.7,68,99.6,67.9,98.2,68.1
			L98.2,68.1z"/>
	</g>
</g>
</svg>
