<?xml version="1.0" encoding="utf-8"?>
<!-- Generator: Adobe Illustrator 23.1.0, SVG Export Plug-In . SVG Version: 6.00 Build 0)  -->
<svg version="1.1" id="Layer_1" xmlns="http://www.w3.org/2000/svg" xmlns:xlink="http://www.w3.org/1999/xlink" x="0px" y="0px"
	 viewBox="0 0 320 320" style="enable-background:new 0 0 320 320;" xml:space="preserve">
<style type="text/css">
	.st0{fill:#BCBEC0;stroke:#BCBEC0;stroke-miterlimit:10;}
	.st1{fill:#E6E7E8;stroke:#E6E7E8;stroke-miterlimit:10;}
	.st2{fill:#D1D3D4;stroke:#D1D3D4;stroke-miterlimit:10;}
	.st3{fill:#F1F2F2;}
</style>
<path class="st0" d="M156.6,155.9c-2.3,28.3,38.7,83.8,83.2,108.3c31.5,17.4,36.6,44.1,36.6,44.1H156.8H37.1c0,0,5.1-26.7,36.6-44.1
	c33.1-29.6,15.1-69.1,6.4-86.3c-23.5-46.6-9.4-110.8,35.7-130.7c14.1-6.2,44.4,0.5,57.4-5.8c6.3-3,17.3-22,17.3-22s7.9,5.7,7.2,8.3
	C194.4,40.9,214.6,45.3,219,48c14.7,9,20.4,38,31.8,50.9c7.7,8.7,35.3,37.3,31.8,48.7c-3.2,10.5-30.3,22.4-37.5,20.9
	c-8.5-1.7-13.8-13.3-21.9-16.4c-2.6-1-14.2-0.2-22.9-3.8c-14.7-6-30.7-20.6-30.7-20.6S157.7,143.2,156.6,155.9z"/>
<path class="st1" d="M239.8,264.2c31.6,17.1,36.6,44.1,36.6,44.1H156.8H37.1c0,0,5.1-26.7,36.6-44.1c33.1-29.6,15.1-69.1,6.4-86.3
	c-23.5-46.6-9.4-110.8,35.7-130.7c14.1-6.2,44.4,0.5,57.4-5.8c6.3-3,17.3-22,17.3-22s4.7,7,4,9.7C191.2,42.2,214.6,45.3,219,48
	c14.7,9,17,39.5,28.4,52.4c7.7,8.7,38.7,35.7,35.1,47.2c-3.2,10.5-30.3,22.4-37.5,20.9c-8.5-1.7-3.6-18.5-11.7-21.7
	c-2.6-1-24.4,5.1-33.1,1.5c-14.7-6-30.7-20.6-30.7-20.6s-16.3-12.7-18.6-12.4C146.8,115.8,109.8,193.9,239.8,264.2z"/>
<path class="st2" d="M240,264.2c31.6,17.1,36.6,44.1,36.6,44.1H156.9H37.2c0,0,10.8-23.1,42.4-40.5c33.1-29.6,9.3-72.7,0.6-89.9
	c-23.5-46.6-0.1-100.6,45.1-120.5c14.1-6.2,38.2-7.8,51.2-14.1c6.3-3,14.2-24,14.2-24s4.7,7,4,9.7c-3.3,13.1,20.1,16.2,24.5,18.9
	c14.7,9,17,39.5,28.4,52.4c7.7,8.7,38.7,35.7,35.1,47.2c-3.2,10.5-30.3,22.4-37.5,20.9c-8.5-1.7-3.6-18.5-11.7-21.7
	c-2.6-1-24.4,5.1-33.1,1.5c-14.7-6-30.7-20.6-30.7-20.6s-16.3-12.7-18.6-12.4C146.9,115.8,109.9,193.9,240,264.2z"/>
<g>
	<g>
		<path class="st3" d="M118.8,72.7c-7.2,3.5-12.7,10.5-14.5,18.3c-0.6,2.5,0.8,5.5,3.5,6.2c2.6,0.6,5.5-0.8,6.2-3.5
			c0.3-1.2,0.7-2.4,1.1-3.5c-0.2,0.4-0.3,0.8-0.5,1.2c0.8-1.8,1.8-3.6,3-5.2c-0.3,0.3-0.5,0.7-0.8,1c1.2-1.6,2.6-3,4.2-4.2
			c-0.3,0.3-0.7,0.5-1,0.8c1.2-0.9,2.5-1.7,3.9-2.4c2.4-1.2,3.2-4.7,1.8-6.8C124.1,72.1,121.3,71.5,118.8,72.7L118.8,72.7z"/>
	</g>
</g>
</svg>
