<?xml version="1.0" encoding="utf-8"?>
<!-- Generator: Adobe Illustrator 23.1.0, SVG Export Plug-In . SVG Version: 6.00 Build 0)  -->
<svg version="1.1" id="Layer_1" xmlns="http://www.w3.org/2000/svg" xmlns:xlink="http://www.w3.org/1999/xlink" x="0px" y="0px"
	 viewBox="0 0 320 320" style="enable-background:new 0 0 320 320;" xml:space="preserve">
<style type="text/css">
	.st0{fill:#E6E7E8;stroke:#E6E7E8;stroke-miterlimit:10;}
	.st1{fill:#BCBEC0;stroke:#BCBEC0;stroke-miterlimit:10;}
	.st2{fill:#D1D3D4;stroke:#D1D3D4;stroke-miterlimit:10;}
	.st3{fill:#F1F2F2;}
</style>
<circle class="st0" cx="160" cy="90.3" r="64.1"/>
<path class="st0" d="M160,297.3H33.2c-16.6-22,14.8-41.2,24.4-45.2c44.7-18.8,65.2-93,66.7-93H160h35.7c1.5,0,22,74.2,66.7,93
	c9.6,4.1,41,23.2,24.4,45.2H160z"/>
<path class="st1" d="M160,297.3H33.2c-16.6-22,72.4-38.3,80.8-44.6c23.3-17.4-17.8-33.3-6.9-54.2s16.4-39.5,17.2-39.5H160h35.7
	c1.5,0,22,74.2,66.7,93c9.6,4.1,41,23.2,24.4,45.2H160z"/>
<path class="st1" d="M224.1,90.3c0,35.4-28.7,64.1-64.1,64.1s-41.1-65.9-41.1-65.9s5.7-62.4,41.1-62.4S224.1,54.9,224.1,90.3z"/>
<path class="st2" d="M216.4,91.9c-2.9,35.3-17.7,51.7-53.1,51.7c-15.6,0-33.2,5.2-44.4-4.2c-11-9.2-18.8-22-21.8-36.5
	c-0.8-4.1,7.3-21.2,9.5-25c10.2-18.4,29.8-51,53.4-51.9C195.4,24.9,219.2,57.4,216.4,91.9z"/>
<path class="st2" d="M159.2,297.3H32.4c-16.6-22,45.1-43.8,53.5-50c23.3-17.4,9.5-27.8,20.4-48.7s16.4-39.5,17.2-39.5
	c0,0,11,11.3,15,14.8c8.7,7.6,27.7,21.1,37.1,27.5c1.2,0.8,41.4,31.9,86,50.7c9.6,4.1,41,23.2,24.4,45.2H159.2z"/>
<g>
	<path class="st1" d="M85.9,160.2c0-4.3,29.2-19.5,32-19.5h84.3c2.8,0,32,15.1,32,19.5s-3.5,12.7-7.9,12.7H93.8
		C89.4,172.9,85.9,164.5,85.9,160.2L85.9,160.2z"/>
</g>
<path class="st0" d="M197.9,166.4l-104.1,0.2c-2.6,0-6.4-0.2-6.4-0.2s-1.5-4.5-1.5-6.2v0c0-4.3,29.2-19.5,32-19.5h76.3
	c2.8,0,13.8,11.8,13.2,16.1C206.6,162,197.9,166.4,197.9,166.4z"/>
<path class="st2" d="M86,159.6c4-1.8,19.3-0.7,23.7-5.9c5.7-6.9,6.6-13,8.1-13h76.3c2.8,0,13.8,11.8,13.2,16.1
	c-0.7,5.2-9.5,9.6-9.5,9.6l-104.1,0.2c-2.6,0-5.6,1.1-6.4-0.2C85.2,163,86,159.6,86,159.6z"/>
<g>
	<g>
		<path class="st3" d="M133,54.4c-1.7,1-3.4,2.4-4.7,3.9c-1.3,1.6-2.6,3.2-3.4,5.1c-0.5,1.2-1.1,2.4-1.4,3.7
			c-0.3,1.3-0.5,2.6-0.6,3.9c-0.2,2.1,0,4.3,0.5,6.3c0.4,1.8,1.9,3.6,3.4,4.5c1.6,0.9,4,1.3,5.8,0.8c1.8-0.6,3.6-1.7,4.5-3.4
			c1-1.8,1.2-3.7,0.8-5.8c-0.1-0.3-0.1-0.7-0.2-1c0.1,0.7,0.2,1.3,0.3,2c-0.1-1.2-0.1-2.3,0-3.5c-0.1,0.7-0.2,1.3-0.3,2
			c0.2-1.2,0.5-2.4,1-3.6c-0.3,0.6-0.5,1.2-0.8,1.8c0.5-1.1,1.1-2.1,1.8-3c-0.4,0.5-0.8,1-1.2,1.5c0.7-0.9,1.5-1.8,2.5-2.5
			c-0.5,0.4-1,0.8-1.5,1.2c0.4-0.3,0.8-0.6,1.2-0.8c1.6-1,2.9-2.6,3.4-4.5c0.5-1.8,0.3-4.2-0.8-5.8c-1-1.6-2.6-3-4.5-3.4
			C136.8,53.2,134.8,53.4,133,54.4L133,54.4z"/>
	</g>
</g>
</svg>
