<?xml version="1.0" encoding="utf-8"?>
<!-- Generator: Adobe Illustrator 23.1.0, SVG Export Plug-In . SVG Version: 6.00 Build 0)  -->
<svg version="1.1" id="Layer_1" xmlns="http://www.w3.org/2000/svg" xmlns:xlink="http://www.w3.org/1999/xlink" x="0px" y="0px"
	 viewBox="0 0 320 320" style="enable-background:new 0 0 320 320;" xml:space="preserve">
<style type="text/css">
	.st0{fill:#BCBEC0;stroke:#BCBEC0;stroke-miterlimit:10;}
	.st1{fill:#E6E7E8;stroke:#E6E7E8;stroke-miterlimit:10;}
	.st2{fill:#D1D3D4;stroke:#D1D3D4;stroke-miterlimit:10;}
	.st3{fill:#58595B;stroke:#58595B;stroke-miterlimit:10;}
	.st4{fill:none;stroke:#58595B;stroke-miterlimit:10;}
</style>
<path class="st0" d="M160,160c0,0,79.6-8.3,81.6-11.6c13.2-20.5,33.2-91.7,33.2-91.7l-33.2-12c0,0-13.5,50.2-25.3,60.8
	c-4.2,3.7-18.1,3.2-22.4-0.3c-13.2-10.8-14.6-66.6-14.6-66.6H160h-19.4c0,0-2.5,54.6-14.6,66.6c-4,3.9-17.9,3.6-22.4,0.3
	c-12.7-9.4-25.3-60.8-25.3-60.8l-33.2,12c0,0,20,71.2,33.2,91.7C80.4,151.7,160,160,160,160z"/>
<path class="st0" d="M132.1,169.3c0,0-10.7,68.3-55.2,92.9c-31.5,17.4-36.6,44.1-36.6,44.1H160h119.6c0,0-5.1-26.7-36.6-44.1
	c-44.5-24.5-55.2-92.9-55.2-92.9H132.1z"/>
<path class="st1" d="M132.1,169.3c0,0-10.7,68.3-55.2,92.9c-31.5,17.4-36.6,44.1-36.6,44.1H160h119.6c0,0-5.1-26.7-36.6-44.1
	c-44.5-24.5-73.4-19.9-97.2-92.9C144.9,166.1,132.1,169.3,132.1,169.3z"/>
<path class="st2" d="M132.1,169.3c0,0-5.8,37.1-26.7,66.4c-7.5,10.5-8.3,29.9-20,36.4c-19.6,10.8-37.5,15.3-41.7,24.6
	c-2.6,5.7-3.3,9.5-3.3,9.5H160h119.6c0,0-5.1-26.7-36.6-44.1c-44.5-24.5-73.4-19.9-97.2-92.9C144.9,166.1,132.1,169.3,132.1,169.3z"
	/>
<path class="st1" d="M160,160c0,0,65.6-16.1,68.2-19c17.2-19.3,46.7-84.2,46.7-84.2l-33.2-12c0,0-13.5,50.2-25.3,60.8
	c-4.2,3.7-18.1,3.2-22.4-0.3c-13.2-10.8-19.3-66.6-19.3-66.6H160h-19.4c0,0-2.5,54.6-14.6,66.6c-4,3.9-17.2,2.4-22.4,0.3
	c-15.2-6.2-13.9-22.8-18.7-37.8c-4-12.4-6.6-23-6.6-23l-33.2,12c0,0,20,71.2,33.2,91.7C80.4,151.7,160,160,160,160z"/>
<path class="st2" d="M160,160c0,0,65.6-16.1,68.2-19c17.2-19.3,46.7-84.2,46.7-84.2l-26-9.5c0,0-20.6,47.7-32.4,58.2
	c-4.2,3.7-18.1,3.2-22.4-0.3c-13.2-10.8-19.3-66.6-19.3-66.6H160h-7c0,0-14.8,54.6-27,66.6c-4,3.9-17.3,2.6-22.4,0.3
	c-14.1-6.2-13.9-22.8-18.7-37.8c-4-12.4-6.6-23-6.6-23L58.4,60.5c0,0,6.7,67.5,20,87.9C80.4,151.7,160,160,160,160z"/>
<path class="st3" d="M88.3,178.2"/>
<path class="st4" d="M76.1,174.2"/>
<path class="st0" d="M191.3,178.2h47.2c0,0,8.1-16.5,4.5-17.6c-30.8-9.4-79.6-9.5-79.6-9.5s-48.7,0.1-79.6,9.5
	c-3.6,1.1,4.5,17.6,4.5,17.6h47.2H191.3z"/>
<path class="st2" d="M191.4,174.2l11.8-2.9c0,0,3.4-10.7-0.2-11.8c-30.8-9.4-41.2-8.7-41.2-8.7s-47.5,0.6-78.4,10
	c-2.4,0.7,3.1,13.5,3.1,13.5L191.4,174.2z"/>
</svg>
